<svg xmlns="http://www.w3.org/2000/svg">
    <symbol id="icon-home" width="100%" height="100%" viewBox="0 0 32 32"><path fill="currentColor" d="M16.81 4.3a1.25 1.25 0 0 0-1.62 0l-9.75 8.288a1.25 1.25 0 0 0-.44.953V26.5a.5.5 0 0 0 .5.5h5a.5.5 0 0 0 .5-.5v-7a2.5 2.5 0 0 1 2.5-2.5h5.004a2.5 2.5 0 0 1 2.5 2.5v7a.5.5 0 0 0 .5.5H26.5a.5.5 0 0 0 .5-.5V13.54a1.25 1.25 0 0 0-.44-.952zm-2.915-1.523a3.25 3.25 0 0 1 4.21 0l9.75 8.287A3.25 3.25 0 0 1 29 13.54V26.5a2.5 2.5 0 0 1-2.5 2.5h-4.996a2.5 2.5 0 0 1-2.5-2.5v-7a.5.5 0 0 0-.5-.5H13.5a.5.5 0 0 0-.5.5v7a2.5 2.5 0 0 1-2.5 2.5h-5A2.5 2.5 0 0 1 3 26.5V13.54a3.25 3.25 0 0 1 1.145-2.476z"/></symbol>
    <symbol id="icon-home-active" width="100%" height="100%" viewBox="0 0 32 32"><path fill="currentColor" d="M13.895 2.777a3.25 3.25 0 0 1 4.21 0l9.75 8.287A3.25 3.25 0 0 1 29 13.54V26.5a2.5 2.5 0 0 1-2.5 2.5h-4a2.5 2.5 0 0 1-2.5-2.5V20a2 2 0 0 0-1.991-2H13.99A2 2 0 0 0 12 20v6.5A2.5 2.5 0 0 1 9.5 29h-4A2.5 2.5 0 0 1 3 26.5V13.54a3.25 3.25 0 0 1 1.145-2.476z"/></symbol>
    <symbol id="icon-chat" width="100%" height="100%" viewBox="0 0 24 24"><path fill="none" stroke="currentColor" stroke-linecap="round" stroke-linejoin="round" stroke-width="2" d="M8 9h8m-8 4h6m4-9a3 3 0 0 1 3 3v8a3 3 0 0 1-3 3h-5l-5 3v-3H6a3 3 0 0 1-3-3V7a3 3 0 0 1 3-3z"/></symbol>
    <symbol id="icon-chat-active" width="100%" height="100%" viewBox="0 0 24 24"><path fill="currentColor" d="M18 3a4 4 0 0 1 4 4v8a4 4 0 0 1-4 4h-4.724l-4.762 2.857a1 1 0 0 1-1.508-.743L7 21v-2H6a4 4 0 0 1-3.995-3.8L2 15V7a4 4 0 0 1 4-4zm-4 9H8a1 1 0 0 0 0 2h6a1 1 0 0 0 0-2m2-4H8a1 1 0 1 0 0 2h8a1 1 0 0 0 0-2"/></symbol>
    <symbol id="icon-profile" width="100%" height="100%" viewBox="0 0 24 24"><path fill="currentColor" d="M4 22a8 8 0 1 1 16 0h-2a6 6 0 0 0-12 0zm8-9c-3.315 0-6-2.685-6-6s2.685-6 6-6s6 2.685 6 6s-2.685 6-6 6m0-2c2.21 0 4-1.79 4-4s-1.79-4-4-4s-4 1.79-4 4s1.79 4 4 4"/></symbol>
    <symbol id="icon-profile-active" width="100%" height="100%" viewBox="0 0 24 24"><path fill="currentColor" d="M4 22a8 8 0 1 1 16 0zm8-9c-3.315 0-6-2.685-6-6s2.685-6 6-6s6 2.685 6 6s-2.685 6-6 6"/></symbol>
    <symbol id="icon-x" width="100%" height="100%" viewBox="0 0 24 24"><rect width="24" height="24" fill="none"/><path fill="none" stroke="currentColor" stroke-linecap="round" stroke-linejoin="round" stroke-width="1.5" d="M6.758 17.243L12.001 12m5.243-5.243L12 12m0 0L6.758 6.757M12.001 12l5.243 5.243"/></symbol>
    <symbol id="icon-heart" width="100%" height="100%" viewBox="0 0 24 24"><path fill="currentColor" fill-rule="evenodd" d="M19.285 12.645a3.8 3.8 0 0 0-5.416-5.332q-.288.288-.732.707l-.823.775l-.823-.775q-.445-.42-.733-.707a3.8 3.8 0 0 0-5.374 0c-1.468 1.469-1.485 3.844-.054 5.32l6.984 6.984l6.97-6.972zm-14.75-6.18a5 5 0 0 1 7.072 0q.273.274.707.682q.432-.408.707-.683a5 5 0 0 1 7.125 7.017l-7.125 7.126a1 1 0 0 1-1.414 0L4.48 13.48a5 5 0 0 1 .055-7.017z"/></symbol>
    <symbol id="icon-heart-active" width="100%" height="100%" viewBox="0 0 24 24"><path fill="currentColor" fill-rule="evenodd" d="M4.536 5.778a5 5 0 0 1 7.07 0q.275.274.708.682q.432-.408.707-.682a5 5 0 0 1 7.125 7.016L13.02 19.92a1 1 0 0 1-1.414 0L4.48 12.795a5 5 0 0 1 .055-7.017z"/></symbol>
    <symbol id="icon-reply" width="100%" height="100%" viewBox="0 0 16 16"><path fill="currentColor" d="M2.678 11.894a1 1 0 0 1 .287.801a11 11 0 0 1-.398 2c1.395-.323 2.247-.697 2.634-.893a1 1 0 0 1 .71-.074A8 8 0 0 0 8 14c3.996 0 7-2.807 7-6s-3.004-6-7-6s-7 2.808-7 6c0 1.468.617 2.83 1.678 3.894m-.493 3.905a22 22 0 0 1-.713.129c-.2.032-.352-.176-.273-.362a10 10 0 0 0 .244-.637l.003-.01c.248-.72.45-1.548.524-2.319C.743 11.37 0 9.76 0 8c0-3.866 3.582-7 8-7s8 3.134 8 7s-3.582 7-8 7a9 9 0 0 1-2.347-.306c-.52.263-1.639.742-3.468 1.105"/></symbol>
    <symbol id="icon-reply-active" width="100%" height="100%" viewBox="0 0 16 16"><path fill="currentColor" d="M8 15c4.418 0 8-3.134 8-7s-3.582-7-8-7s-8 3.134-8 7c0 1.76.743 3.37 1.97 4.6c-.097 1.016-.417 2.13-.771 2.966c-.079.186.074.394.273.362c2.256-.37 3.597-.938 4.18-1.234A9 9 0 0 0 8 15"/></symbol>
    <symbol id="icon-views" width="100%" height="100%" viewBox="0 0 512 512"><path fill="currentColor" d="M104 496H72a24 24 0 0 1-24-24V328a24 24 0 0 1 24-24h32a24 24 0 0 1 24 24v144a24 24 0 0 1-24 24m224 0h-32a24 24 0 0 1-24-24V232a24 24 0 0 1 24-24h32a24 24 0 0 1 24 24v240a24 24 0 0 1-24 24m112 0h-32a24 24 0 0 1-24-24V120a24 24 0 0 1 24-24h32a24 24 0 0 1 24 24v352a24 24 0 0 1-24 24m-224 0h-32a24 24 0 0 1-24-24V40a24 24 0 0 1 24-24h32a24 24 0 0 1 24 24v432a24 24 0 0 1-24 24"/></symbol>
    <symbol id="icon-back" width="100%" height="100%" viewBox="0 0 512 512"><rect width="512" height="512" fill="none"/><path fill="none" stroke="currentColor" stroke-linecap="round" stroke-linejoin="round" stroke-width="48" d="M244 400L100 256l144-144M120 256h292"/></symbol>
    <!-- <symbol id="icon-x" width="100%" height="100%" viewBox="0 0 24 24"></symbol> -->
</svg>