<svg xmlns="http://www.w3.org/2000/svg">
    <symbol id="icon-home" width="100%" height="100%" viewBox="0 0 32 32"><path fill="currentColor" d="M16.81 4.3a1.25 1.25 0 0 0-1.62 0l-9.75 8.288a1.25 1.25 0 0 0-.44.953V26.5a.5.5 0 0 0 .5.5h5a.5.5 0 0 0 .5-.5v-7a2.5 2.5 0 0 1 2.5-2.5h5.004a2.5 2.5 0 0 1 2.5 2.5v7a.5.5 0 0 0 .5.5H26.5a.5.5 0 0 0 .5-.5V13.54a1.25 1.25 0 0 0-.44-.952zm-2.915-1.523a3.25 3.25 0 0 1 4.21 0l9.75 8.287A3.25 3.25 0 0 1 29 13.54V26.5a2.5 2.5 0 0 1-2.5 2.5h-4.996a2.5 2.5 0 0 1-2.5-2.5v-7a.5.5 0 0 0-.5-.5H13.5a.5.5 0 0 0-.5.5v7a2.5 2.5 0 0 1-2.5 2.5h-5A2.5 2.5 0 0 1 3 26.5V13.54a3.25 3.25 0 0 1 1.145-2.476z"/></symbol>
    <symbol id="icon-home-active" width="100%" height="100%" viewBox="0 0 32 32"><path fill="currentColor" d="M13.895 2.777a3.25 3.25 0 0 1 4.21 0l9.75 8.287A3.25 3.25 0 0 1 29 13.54V26.5a2.5 2.5 0 0 1-2.5 2.5h-4a2.5 2.5 0 0 1-2.5-2.5V20a2 2 0 0 0-1.991-2H13.99A2 2 0 0 0 12 20v6.5A2.5 2.5 0 0 1 9.5 29h-4A2.5 2.5 0 0 1 3 26.5V13.54a3.25 3.25 0 0 1 1.145-2.476z"/></symbol>
    <symbol id="icon-chat" width="100%" height="100%" viewBox="0 0 24 24"><path fill="none" stroke="currentColor" stroke-linecap="round" stroke-linejoin="round" stroke-width="2" d="M8 9h8m-8 4h6m4-9a3 3 0 0 1 3 3v8a3 3 0 0 1-3 3h-5l-5 3v-3H6a3 3 0 0 1-3-3V7a3 3 0 0 1 3-3z"/></symbol>
    <symbol id="icon-chat-active" width="100%" height="100%" viewBox="0 0 24 24"><path fill="currentColor" d="M18 3a4 4 0 0 1 4 4v8a4 4 0 0 1-4 4h-4.724l-4.762 2.857a1 1 0 0 1-1.508-.743L7 21v-2H6a4 4 0 0 1-3.995-3.8L2 15V7a4 4 0 0 1 4-4zm-4 9H8a1 1 0 0 0 0 2h6a1 1 0 0 0 0-2m2-4H8a1 1 0 1 0 0 2h8a1 1 0 0 0 0-2"/></symbol>
    <symbol id="icon-profile" width="100%" height="100%" viewBox="0 0 24 24"><path fill="currentColor" d="M4 22a8 8 0 1 1 16 0h-2a6 6 0 0 0-12 0zm8-9c-3.315 0-6-2.685-6-6s2.685-6 6-6s6 2.685 6 6s-2.685 6-6 6m0-2c2.21 0 4-1.79 4-4s-1.79-4-4-4s-4 1.79-4 4s1.79 4 4 4"/></symbol>
    <symbol id="icon-profile-active" width="100%" height="100%" viewBox="0 0 24 24"><path fill="currentColor" d="M4 22a8 8 0 1 1 16 0zm8-9c-3.315 0-6-2.685-6-6s2.685-6 6-6s6 2.685 6 6s-2.685 6-6 6"/></symbol>
    <symbol id="icon-x" width="100%" height="100%" viewBox="0 0 24 24"><rect width="24" height="24" fill="none"/><path fill="none" stroke="currentColor" stroke-linecap="round" stroke-linejoin="round" stroke-width="1.5" d="M6.758 17.243L12.001 12m5.243-5.243L12 12m0 0L6.758 6.757M12.001 12l5.243 5.243"/></symbol>
</svg>